<svg version="1.2" baseProfile="tiny-ps" xmlns="http://www.w3.org/2000/svg" viewBox="0 0 1280 976" width="1280" height="976">
	<title>Anchor</title>
	<style>
		tspan { white-space:pre }
		.shp0 { fill: #1b1b1b } 
	</style>
	<path id="Anchor" class="shp0" d="M288 538.19C274.76 538.19 263.62 528.29 262.08 515.16C261.95 514.06 262.73 513.07 263.83 512.94C264.92 512.8 265.92 513.59 266.05 514.69C267.35 525.81 276.79 534.19 288 534.19C299.19 534.19 308.63 525.82 309.95 514.73C310.08 513.63 311.07 512.84 312.17 512.98C313.27 513.11 314.06 514.1 313.92 515.2C312.36 528.31 301.22 538.19 288 538.19ZM288 537.68C286.89 537.68 286 536.79 286 535.68L286 490.56C286 489.45 286.89 488.56 288 488.56C289.1 488.56 290 489.45 290 490.56L290 535.68C290 536.79 289.1 537.68 288 537.68ZM288.03 477.94C290.27 477.94 292.09 479.76 292.09 482C292.09 484.24 290.27 486.06 288.03 486.06C285.79 486.06 283.97 484.24 283.97 482C283.97 479.76 285.79 477.94 288.03 477.94M288.03 473.94C283.58 473.94 279.97 477.55 279.97 482C279.97 486.45 283.58 490.06 288.03 490.06C292.48 490.06 296.09 486.45 296.09 482C296.09 477.55 292.48 473.94 288.03 473.94L288.03 473.94ZM312.4 513.16L304.49 518.54C303.81 518.97 302.89 518.95 302.48 518.25L302.07 517.8C301.67 517.1 301.89 516.18 302.57 515.74L311.67 509.6C311.68 509.59 311.69 509.58 311.7 509.57L312.32 509.17C312.66 508.95 313.05 508.9 313.4 508.99C313.76 509.07 314.09 509.3 314.29 509.65L314.66 510.28C314.67 510.3 314.66 510.31 314.67 510.32L319.81 519.78C320.22 520.48 320 521.39 319.32 521.83L318.75 522.05C318.07 522.48 317.23 522.09 316.82 521.39L312.4 513.16ZM259.18 521.39C258.77 522.09 257.93 522.48 257.25 522.05L256.68 521.83C256 521.39 255.78 520.48 256.19 519.78L261.33 510.32C261.34 510.31 261.33 510.3 261.34 510.28L261.71 509.65C261.91 509.3 262.24 509.07 262.6 508.99C262.95 508.9 263.34 508.95 263.68 509.17L264.3 509.57C264.31 509.58 264.32 509.59 264.33 509.6L273.43 515.74C274.11 516.18 274.33 517.1 273.93 517.8L273.52 518.25C273.11 518.95 272.19 518.97 271.51 518.54L263.6 513.16L259.18 521.39ZM278 490L298 490C299.1 490 300 490.89 300 492C300 493.1 299.1 494 298 494L278 494C276.9 494 276 493.1 276 492C276 490.89 276.9 490 278 490Z" />
</svg>