<svg version="1.2" baseprofile="tiny-ps" xmlns="http://www.w3.org/2000/svg" viewbox="0 0 1280 976" width="64" height="64">
	
	<path id="Diamond" class="shp0" d="M537.75 440.98L546.06 456.88L517.94 495.17L490.27 456.59L498.57 440.98L537.75 440.98M538.17 436.98L498.17 436.98C497.07 436.98 495.74 437.77 495.23 438.75L486.51 455.14C485.99 456.11 486.09 457.63 486.73 458.53L516.74 500.35C517.06 500.8 517.49 501.03 517.91 501.03C518.34 501.03 518.76 500.81 519.09 500.36L549.58 458.85C550.23 457.96 550.35 456.44 549.84 455.47L541.09 438.75C540.58 437.78 539.27 436.98 538.17 436.98L538.17 436.98ZM546.42 458.98L488.42 458.98L488.42 454.98L546.42 454.98L546.42 458.98ZM516.02 496.61L497.27 440.11L501.06 438.85L519.81 495.35L516.02 496.61ZM519.96 496.18L516.18 494.86L536.28 437.32L540.06 438.64L519.96 496.18ZM507.14 458.12L503.86 455.83L516.39 437.83C516.76 437.31 517.35 436.99 517.98 436.97C518.59 436.98 519.22 437.24 519.61 437.75L533.08 455.08L529.92 457.54L518.12 442.35L507.14 458.12Z" />
</svg>