<svg version="1.2" baseProfile="tiny-ps" xmlns="http://www.w3.org/2000/svg" viewBox="0 0 1280 976" width="1280" height="976">
	<title>Eyeglasses</title>
	<style>
		tspan { white-space:pre }
		.shp0 { fill: #1b1b1b } 
	</style>
	<path id="Eyeglasses" class="shp0" d="M726.91 516.69C726.86 516.69 726.81 516.69 726.77 516.69C725.66 516.61 724.83 515.65 724.91 514.55C724.97 513.68 728.03 494.72 728.54 491.66C728.59 491.37 728.62 491.06 728.67 490.73C729.06 487.65 729.79 481.94 739.01 481.94C740.12 481.94 741.01 482.83 741.01 483.94C741.01 485.04 740.12 485.94 739.01 485.94C733.31 485.94 733.01 488.28 732.63 491.24C732.59 491.62 732.54 491.98 732.48 492.32C732.09 494.7 729.32 508.99 728.9 514.83C728.83 515.89 727.95 516.69 726.91 516.69ZM787.09 516.82C786.05 516.82 784.97 516.01 784.9 514.96C784.48 509.12 781.71 494.7 781.32 492.32C781.26 491.98 781.21 491.62 781.17 491.24C780.79 488.28 780.49 485.94 774.79 485.94C773.69 485.94 772.79 485.04 772.79 483.94C772.79 482.83 773.69 481.94 774.79 481.94C784.01 481.94 784.74 487.65 785.13 490.73C785.18 491.06 785.21 491.37 785.26 491.66C785.77 494.72 789.03 513.81 789.09 514.67C789.17 515.78 788.34 516.73 787.23 516.81C787.19 516.82 787.14 516.82 787.09 516.82ZM739.08 506.02C744.58 506.02 749.04 510.48 749.04 515.98C749.04 521.47 744.58 525.94 739.08 525.94C733.57 525.94 728.92 521.38 728.92 515.98C728.92 510.58 733.57 506.02 739.08 506.02M739.08 502.02C731.37 502.02 724.92 508.27 724.92 515.98C724.92 523.69 731.37 529.94 739.08 529.94C746.79 529.94 753.04 523.69 753.04 515.98C753.04 508.27 746.79 502.02 739.08 502.02L739.08 502.02ZM775.08 506.02C780.57 506.02 785.04 510.48 785.04 515.98C785.04 521.47 780.57 525.94 775.08 525.94C769.57 525.94 764.91 521.38 764.91 515.98C764.91 510.58 769.57 506.02 775.08 506.02M775.08 502.02C767.37 502.02 760.91 508.27 760.91 515.98C760.91 523.69 767.37 529.94 775.08 529.94C782.79 529.94 789.04 523.69 789.04 515.98C789.04 508.27 782.79 502.02 775.08 502.02L775.08 502.02ZM751.87 512.96L749.69 509.6C749.97 509.42 752.51 507.83 756.98 507.83C761.25 507.83 763.86 509.23 764.15 509.39L762.18 512.88C762.18 512.88 760.21 511.83 756.98 511.83C753.71 511.83 751.89 512.94 751.87 512.96Z" />
</svg>