<svg version="1.2" baseProfile="tiny-ps" xmlns="http://www.w3.org/2000/svg" viewBox="0 0 1280 976" width="1280" height="976">
	<title>Monitor</title>
	<style>
		tspan { white-space:pre }
		.shp0 { fill: #1b1b1b } 
	</style>
	<path id="Monitor" class="shp0" d="M1020 483.98L1020 517.99L964 517.99L964 483.98L1020 483.98M1020 479.98L964 479.98C961.8 479.98 960 481.78 960 483.98L960 517.99C960 520.19 961.8 521.99 964 521.99L1020 521.99C1022.2 521.99 1024 520.19 1024 517.99L1024 483.98C1024 481.78 1022.2 479.98 1020 479.98L1020 479.98ZM994 520L994 528L1004 528C1005.1 528 1006 528.9 1006 530C1006 531.1 1005.1 532 1004 532L980 532C978.9 532 978 531.1 978 530C978 528.9 978.9 528 980 528L990 528L990 520L994 520Z" />
</svg>