<svg version="1.2" baseProfile="tiny-ps" xmlns="http://www.w3.org/2000/svg" viewBox="0 0 74 72" width="66" height="64">
	<title>Diamond</title>
	<style>
		tspan { white-space:pre }
		.shp0 { fill: #ffffff } 
	</style>
	<path id="Diamond" class="shp0" d="M57.75 7.98L66.06 23.88L37.94 62.17L10.27 23.59L18.57 7.98L57.75 7.98M58.17 3.98L18.17 3.98C17.07 3.98 15.74 4.77 15.23 5.75L6.51 22.14C5.99 23.11 6.09 24.63 6.73 25.53L36.74 67.35C37.06 67.8 37.49 68.03 37.91 68.03C38.34 68.03 38.76 67.81 39.09 67.36L69.58 25.85C70.23 24.96 70.35 23.44 69.84 22.47L61.09 5.75C60.58 4.78 59.27 3.98 58.17 3.98L58.17 3.98ZM66.42 25.98L8.42 25.98L8.42 21.98L66.42 21.98L66.42 25.98ZM36.02 63.61L17.27 7.11L21.06 5.85L39.81 62.35L36.02 63.61ZM39.96 63.18L36.18 61.86L56.28 4.32L60.06 5.64L39.96 63.18ZM27.14 25.12L23.86 22.83L36.39 4.83C36.76 4.31 37.35 3.99 37.98 3.97C38.59 3.98 39.22 4.24 39.61 4.75L53.08 22.08L49.92 24.54L38.12 9.35L27.14 25.12Z" />
</svg>